<svg width="24" height="24" viewBox="0 0 24 24" fill="none" xmlns="http://www.w3.org/2000/svg">
<path d="M12 13H8C6.67441 13.0016 5.40356 13.5289 4.46622 14.4662C3.52888 15.4036 3.00159 16.6744 3 18V21H17V18C16.9984 16.6744 16.4711 15.4036 15.5338 14.4662C14.5964 13.5289 13.3256 13.0016 12 13ZM15 19H5V18C5 17.2044 5.31607 16.4413 5.87868 15.8787C6.44129 15.3161 7.20435 15 8 15H12C12.7956 15 13.5587 15.3161 14.1213 15.8787C14.6839 16.4413 15 17.2044 15 18V19Z" fill="#8A8A8E"/>
<path d="M10 12C10.9889 12 11.9556 11.7068 12.7779 11.1573C13.6001 10.6079 14.241 9.82705 14.6194 8.91342C14.9978 7.99979 15.0969 6.99446 14.9039 6.02455C14.711 5.05465 14.2348 4.16373 13.5355 3.46447C12.8363 2.76521 11.9454 2.289 10.9755 2.09608C10.0055 1.90315 9.00021 2.00217 8.08658 2.3806C7.17295 2.75904 6.39206 3.39991 5.84265 4.22215C5.29324 5.0444 5 6.0111 5 7C5.00159 8.3256 5.52888 9.59644 6.46622 10.5338C7.40356 11.4711 8.67441 11.9984 10 12ZM10 4C10.5933 4 11.1734 4.17595 11.6667 4.50559C12.1601 4.83524 12.5446 5.30377 12.7716 5.85195C12.9987 6.40013 13.0581 7.00333 12.9424 7.58527C12.8266 8.16722 12.5409 8.70177 12.1213 9.12132C11.7018 9.54088 11.1672 9.8266 10.5853 9.94236C10.0033 10.0581 9.40013 9.9987 8.85195 9.77164C8.30377 9.54458 7.83524 9.16006 7.50559 8.66671C7.17595 8.17337 7 7.59335 7 7C7 6.20435 7.31607 5.44129 7.87868 4.87868C8.44129 4.31607 9.20435 4 10 4Z" fill="#8A8A8E"/>
<path d="M22 8H20V6H18V8H16V10H18V12H20V10H22V8Z" fill="#8A8A8E"/>
</svg>
