<svg width="41" height="45" viewBox="0 0 41 45" fill="none" xmlns="http://www.w3.org/2000/svg">
<path d="M4.03383 42.08C3.36716 42.08 2.79049 41.9367 2.30383 41.65C1.81716 41.3567 1.44049 40.94 1.17383 40.4C0.913828 39.8533 0.783828 39.21 0.783828 38.47C0.783828 37.7367 0.913828 37.1 1.17383 36.56C1.44049 36.0133 1.81716 35.5967 2.30383 35.31C2.79049 35.0167 3.36716 34.87 4.03383 34.87C4.48049 34.87 4.90049 34.9433 5.29383 35.09C5.69383 35.23 6.0405 35.4333 6.33383 35.7C6.4405 35.8 6.49383 35.9167 6.49383 36.05C6.49383 36.1433 6.46716 36.2267 6.41383 36.3C6.3605 36.3667 6.29716 36.4 6.22383 36.4C6.14383 36.4 6.04716 36.3633 5.93383 36.29C5.59383 36.0233 5.28383 35.8367 5.00383 35.73C4.7305 35.6233 4.41383 35.57 4.05383 35.57C3.28049 35.57 2.68383 35.8233 2.26383 36.33C1.85049 36.83 1.64383 37.5433 1.64383 38.47C1.64383 39.4033 1.85049 40.1233 2.26383 40.63C2.68383 41.13 3.28049 41.38 4.05383 41.38C4.40716 41.38 4.72383 41.3267 5.00383 41.22C5.28383 41.1133 5.59383 40.9267 5.93383 40.66C6.04716 40.5867 6.14383 40.55 6.22383 40.55C6.29716 40.55 6.3605 40.5833 6.41383 40.65C6.46716 40.7167 6.49383 40.8 6.49383 40.9C6.49383 41.0333 6.4405 41.15 6.33383 41.25C6.0405 41.5167 5.69383 41.7233 5.29383 41.87C4.90049 42.01 4.48049 42.08 4.03383 42.08ZM9.58375 37.01C10.8038 37.01 11.4138 37.65 11.4138 38.93V41.65C11.4138 41.77 11.3771 41.8667 11.3038 41.94C11.2371 42.0133 11.1438 42.05 11.0238 42.05C10.9038 42.05 10.8071 42.0133 10.7338 41.94C10.6604 41.8667 10.6238 41.77 10.6238 41.65V41.17C10.4971 41.4567 10.3038 41.68 10.0438 41.84C9.78375 41.9933 9.48375 42.07 9.14375 42.07C8.83042 42.07 8.54042 42.0067 8.27375 41.88C8.01375 41.7533 7.80708 41.5767 7.65375 41.35C7.50042 41.1233 7.42375 40.8733 7.42375 40.6C7.42375 40.2333 7.51708 39.95 7.70375 39.75C7.89042 39.5433 8.19708 39.3967 8.62375 39.31C9.05042 39.2167 9.64375 39.17 10.4038 39.17H10.6238V38.84C10.6238 38.44 10.5404 38.1467 10.3738 37.96C10.2138 37.7733 9.95042 37.68 9.58375 37.68C9.13042 37.68 8.67042 37.8033 8.20375 38.05C8.02375 38.1633 7.89708 38.22 7.82375 38.22C7.74375 38.22 7.67708 38.19 7.62375 38.13C7.57042 38.07 7.54375 37.9933 7.54375 37.9C7.54375 37.8067 7.57042 37.7267 7.62375 37.66C7.68375 37.5867 7.77708 37.5133 7.90375 37.44C8.13708 37.3067 8.40042 37.2033 8.69375 37.13C8.99375 37.05 9.29042 37.01 9.58375 37.01ZM9.25375 41.43C9.65375 41.43 9.98042 41.2967 10.2338 41.03C10.4938 40.7567 10.6238 40.4067 10.6238 39.98V39.69H10.4438C9.85708 39.69 9.41042 39.7167 9.10375 39.77C8.79708 39.8167 8.57708 39.9 8.44375 40.02C8.31708 40.1333 8.25375 40.3033 8.25375 40.53C8.25375 40.79 8.34708 41.0067 8.53375 41.18C8.72708 41.3467 8.96708 41.43 9.25375 41.43ZM13.3065 42.05C13.1865 42.05 13.0865 42.0167 13.0065 41.95C12.9332 41.8767 12.8965 41.7767 12.8965 41.65V35.3C12.8965 35.1733 12.9332 35.0767 13.0065 35.01C13.0865 34.9367 13.1865 34.9 13.3065 34.9C13.4198 34.9 13.5132 34.9367 13.5865 35.01C13.6665 35.0767 13.7065 35.1733 13.7065 35.3V41.65C13.7065 41.7767 13.6665 41.8767 13.5865 41.95C13.5132 42.0167 13.4198 42.05 13.3065 42.05ZM18.9907 40.87C19.064 40.87 19.1274 40.9 19.1807 40.96C19.234 41.02 19.2607 41.0967 19.2607 41.19C19.2607 41.3567 19.144 41.51 18.9107 41.65C18.6707 41.79 18.4174 41.8967 18.1507 41.97C17.884 42.0367 17.624 42.07 17.3707 42.07C16.6174 42.07 16.0207 41.8467 15.5807 41.4C15.1474 40.9533 14.9307 40.3367 14.9307 39.55C14.9307 39.05 15.0274 38.61 15.2207 38.23C15.414 37.8433 15.684 37.5433 16.0307 37.33C16.384 37.1167 16.784 37.01 17.2307 37.01C17.864 37.01 18.3674 37.2167 18.7407 37.63C19.114 38.0433 19.3007 38.6033 19.3007 39.31C19.3007 39.4433 19.274 39.54 19.2207 39.6C19.1674 39.66 19.0807 39.69 18.9607 39.69H15.7407C15.8007 40.8367 16.344 41.41 17.3707 41.41C17.6307 41.41 17.854 41.3767 18.0407 41.31C18.2274 41.2367 18.4274 41.14 18.6407 41.02C18.814 40.92 18.9307 40.87 18.9907 40.87ZM17.2407 37.64C16.814 37.64 16.4707 37.7733 16.2107 38.04C15.9574 38.3067 15.8074 38.6833 15.7607 39.17H18.5907C18.5774 38.6767 18.454 38.3 18.2207 38.04C17.9874 37.7733 17.6607 37.64 17.2407 37.64ZM22.9441 37.01C24.1108 37.01 24.6941 37.6533 24.6941 38.94V41.65C24.6941 41.7767 24.6575 41.8767 24.5841 41.95C24.5175 42.0167 24.4208 42.05 24.2941 42.05C24.1675 42.05 24.0675 42.0167 23.9941 41.95C23.9208 41.8767 23.8841 41.7767 23.8841 41.65V38.99C23.8841 38.5367 23.7941 38.2067 23.6141 38C23.4408 37.7933 23.1608 37.69 22.7741 37.69C22.3275 37.69 21.9708 37.8267 21.7041 38.1C21.4375 38.3733 21.3041 38.7433 21.3041 39.21V41.65C21.3041 41.7767 21.2675 41.8767 21.1941 41.95C21.1275 42.0167 21.0308 42.05 20.9041 42.05C20.7775 42.05 20.6775 42.0167 20.6041 41.95C20.5308 41.8767 20.4941 41.7767 20.4941 41.65V37.43C20.4941 37.31 20.5308 37.2133 20.6041 37.14C20.6775 37.0667 20.7775 37.03 20.9041 37.03C21.0241 37.03 21.1175 37.0667 21.1841 37.14C21.2575 37.2133 21.2941 37.3067 21.2941 37.42V37.93C21.4541 37.63 21.6775 37.4033 21.9641 37.25C22.2508 37.09 22.5775 37.01 22.9441 37.01ZM30.0877 34.9C30.2144 34.9 30.3144 34.9367 30.3877 35.01C30.4611 35.0833 30.4977 35.1767 30.4977 35.29V41.65C30.4977 41.77 30.4611 41.8667 30.3877 41.94C30.3144 42.0133 30.2144 42.05 30.0877 42.05C29.9611 42.05 29.8611 42.0133 29.7877 41.94C29.7211 41.8667 29.6877 41.77 29.6877 41.65V41.11C29.5411 41.4167 29.3244 41.6533 29.0377 41.82C28.7577 41.9867 28.4277 42.07 28.0477 42.07C27.6211 42.07 27.2444 41.9633 26.9177 41.75C26.5911 41.5367 26.3377 41.24 26.1577 40.86C25.9777 40.4733 25.8877 40.0267 25.8877 39.52C25.8877 39.02 25.9777 38.58 26.1577 38.2C26.3377 37.82 26.5911 37.5267 26.9177 37.32C27.2444 37.1133 27.6211 37.01 28.0477 37.01C28.4277 37.01 28.7577 37.0933 29.0377 37.26C29.3244 37.4267 29.5411 37.6633 29.6877 37.97V35.29C29.6877 35.17 29.7211 35.0767 29.7877 35.01C29.8611 34.9367 29.9611 34.9 30.0877 34.9ZM28.2077 41.4C28.6811 41.4 29.0444 41.24 29.2977 40.92C29.5577 40.5933 29.6877 40.1333 29.6877 39.54C29.6877 38.9467 29.5577 38.49 29.2977 38.17C29.0444 37.85 28.6811 37.69 28.2077 37.69C27.7344 37.69 27.3644 37.85 27.0977 38.17C26.8377 38.49 26.7077 38.94 26.7077 39.52C26.7077 40.1133 26.8377 40.5767 27.0977 40.91C27.3644 41.2367 27.7344 41.4 28.2077 41.4ZM33.988 37.01C35.208 37.01 35.818 37.65 35.818 38.93V41.65C35.818 41.77 35.7814 41.8667 35.708 41.94C35.6414 42.0133 35.548 42.05 35.428 42.05C35.308 42.05 35.2114 42.0133 35.138 41.94C35.0647 41.8667 35.028 41.77 35.028 41.65V41.17C34.9014 41.4567 34.708 41.68 34.448 41.84C34.188 41.9933 33.888 42.07 33.548 42.07C33.2347 42.07 32.9447 42.0067 32.678 41.88C32.418 41.7533 32.2114 41.5767 32.058 41.35C31.9047 41.1233 31.828 40.8733 31.828 40.6C31.828 40.2333 31.9214 39.95 32.108 39.75C32.2947 39.5433 32.6014 39.3967 33.028 39.31C33.4547 39.2167 34.048 39.17 34.808 39.17H35.028V38.84C35.028 38.44 34.9447 38.1467 34.778 37.96C34.618 37.7733 34.3547 37.68 33.988 37.68C33.5347 37.68 33.0747 37.8033 32.608 38.05C32.428 38.1633 32.3014 38.22 32.228 38.22C32.148 38.22 32.0814 38.19 32.028 38.13C31.9747 38.07 31.948 37.9933 31.948 37.9C31.948 37.8067 31.9747 37.7267 32.028 37.66C32.088 37.5867 32.1814 37.5133 32.308 37.44C32.5414 37.3067 32.8047 37.2033 33.098 37.13C33.398 37.05 33.6947 37.01 33.988 37.01ZM33.658 41.43C34.058 41.43 34.3847 41.2967 34.638 41.03C34.898 40.7567 35.028 40.4067 35.028 39.98V39.69H34.848C34.2614 39.69 33.8147 39.7167 33.508 39.77C33.2014 39.8167 32.9814 39.9 32.848 40.02C32.7214 40.1333 32.658 40.3033 32.658 40.53C32.658 40.79 32.7514 41.0067 32.938 41.18C33.1314 41.3467 33.3714 41.43 33.658 41.43ZM39.7108 37.03C39.9908 37.01 40.1308 37.1233 40.1308 37.37C40.1308 37.4767 40.1008 37.5633 40.0408 37.63C39.9808 37.69 39.8774 37.7267 39.7308 37.74L39.4308 37.77C38.9841 37.81 38.6508 37.97 38.4308 38.25C38.2174 38.5233 38.1108 38.8467 38.1108 39.22V41.65C38.1108 41.7833 38.0741 41.8833 38.0008 41.95C37.9274 42.0167 37.8308 42.05 37.7108 42.05C37.5908 42.05 37.4908 42.0167 37.4108 41.95C37.3374 41.8767 37.3008 41.7767 37.3008 41.65V37.43C37.3008 37.3033 37.3408 37.2067 37.4208 37.14C37.5008 37.0667 37.5974 37.03 37.7108 37.03C37.8174 37.03 37.9074 37.0667 37.9808 37.14C38.0541 37.2067 38.0908 37.3 38.0908 37.42V37.98C38.2308 37.6867 38.4274 37.4633 38.6808 37.31C38.9408 37.1567 39.2374 37.0667 39.5708 37.04L39.7108 37.03Z" fill="#8A8A8E"/>
<path d="M25.625 4V2H23.625V4H17.625V2H15.625V4H11.625V21H29.625V4H25.625ZM15.625 6V8H17.625V6H23.625V8H25.625V6H27.625V10H13.625V6H15.625ZM13.625 19V12H27.625V19H13.625Z" fill="#8A8A8E"/>
</svg>
