<svg width="33" height="45" viewBox="0 0 33 45" fill="none" xmlns="http://www.w3.org/2000/svg">
<path d="M2.59836 42.05C2.47169 42.05 2.37169 42.0133 2.29836 41.94C2.22503 41.86 2.18836 41.7567 2.18836 41.63V35.35C2.18836 35.23 2.22503 35.1333 2.29836 35.06C2.37836 34.9867 2.48169 34.95 2.60836 34.95H4.97836C5.71836 34.95 6.29169 35.13 6.69836 35.49C7.11169 35.85 7.31836 36.36 7.31836 37.02C7.31836 37.68 7.11169 38.1933 6.69836 38.56C6.28503 38.9267 5.71169 39.11 4.97836 39.11H3.00836V41.63C3.00836 41.7567 2.97169 41.86 2.89836 41.94C2.82503 42.0133 2.72503 42.05 2.59836 42.05ZM4.89836 38.43C5.97169 38.43 6.50836 37.96 6.50836 37.02C6.50836 36.0933 5.97169 35.63 4.89836 35.63H3.00836V38.43H4.89836ZM10.826 37.03C11.106 37.01 11.246 37.1233 11.246 37.37C11.246 37.4767 11.216 37.5633 11.156 37.63C11.096 37.69 10.9927 37.7267 10.846 37.74L10.546 37.77C10.0993 37.81 9.76602 37.97 9.54602 38.25C9.33268 38.5233 9.22602 38.8467 9.22602 39.22V41.65C9.22602 41.7833 9.18935 41.8833 9.11602 41.95C9.04268 42.0167 8.94602 42.05 8.82602 42.05C8.70602 42.05 8.60602 42.0167 8.52602 41.95C8.45268 41.8767 8.41602 41.7767 8.41602 41.65V37.43C8.41602 37.3033 8.45602 37.2067 8.53602 37.14C8.61602 37.0667 8.71268 37.03 8.82602 37.03C8.93268 37.03 9.02268 37.0667 9.09602 37.14C9.16935 37.2067 9.20602 37.3 9.20602 37.42V37.98C9.34602 37.6867 9.54268 37.4633 9.79602 37.31C10.056 37.1567 10.3527 37.0667 10.686 37.04L10.826 37.03ZM13.8638 42.07C13.4038 42.07 12.9971 41.9667 12.6438 41.76C12.2971 41.5533 12.0271 41.26 11.8338 40.88C11.6471 40.4933 11.5538 40.0467 11.5538 39.54C11.5538 39.0333 11.6471 38.59 11.8338 38.21C12.0271 37.8233 12.2971 37.5267 12.6438 37.32C12.9971 37.1133 13.4038 37.01 13.8638 37.01C14.3238 37.01 14.7304 37.1133 15.0838 37.32C15.4371 37.5267 15.7071 37.8233 15.8938 38.21C16.0871 38.59 16.1838 39.0333 16.1838 39.54C16.1838 40.0467 16.0871 40.4933 15.8938 40.88C15.7071 41.26 15.4371 41.5533 15.0838 41.76C14.7304 41.9667 14.3238 42.07 13.8638 42.07ZM13.8638 41.4C14.3438 41.4 14.7104 41.2433 14.9638 40.93C15.2238 40.61 15.3538 40.1467 15.3538 39.54C15.3538 38.9467 15.2238 38.49 14.9638 38.17C14.7038 37.8433 14.3371 37.68 13.8638 37.68C13.3904 37.68 13.0238 37.8433 12.7638 38.17C12.5038 38.49 12.3738 38.9467 12.3738 39.54C12.3738 40.14 12.5004 40.6 12.7538 40.92C13.0138 41.24 13.3838 41.4 13.8638 41.4ZM16.3806 43.82C16.214 43.8333 16.0906 43.81 16.0106 43.75C15.924 43.6967 15.8806 43.6133 15.8806 43.5C15.8806 43.32 15.9973 43.2167 16.2306 43.19L16.5106 43.17C16.8106 43.15 17.0306 43.06 17.1706 42.9C17.3173 42.74 17.3906 42.4767 17.3906 42.11V37.43C17.3906 37.3033 17.4273 37.2067 17.5006 37.14C17.5806 37.0667 17.6806 37.03 17.8006 37.03C17.9206 37.03 18.0173 37.0667 18.0906 37.14C18.164 37.2067 18.2006 37.3033 18.2006 37.43V42.06C18.2006 42.62 18.074 43.04 17.8206 43.32C17.574 43.6 17.1873 43.76 16.6606 43.8L16.3806 43.82ZM17.8006 35.98C17.6406 35.98 17.5106 35.9333 17.4106 35.84C17.3106 35.7467 17.2606 35.6233 17.2606 35.47C17.2606 35.3233 17.3106 35.2033 17.4106 35.11C17.5106 35.0167 17.6406 34.97 17.8006 34.97C17.9606 34.97 18.0906 35.0167 18.1906 35.11C18.2906 35.2033 18.3406 35.3233 18.3406 35.47C18.3406 35.6233 18.2906 35.7467 18.1906 35.84C18.0906 35.9333 17.9606 35.98 17.8006 35.98ZM23.4848 40.87C23.5582 40.87 23.6215 40.9 23.6748 40.96C23.7282 41.02 23.7548 41.0967 23.7548 41.19C23.7548 41.3567 23.6382 41.51 23.4048 41.65C23.1648 41.79 22.9115 41.8967 22.6448 41.97C22.3782 42.0367 22.1182 42.07 21.8648 42.07C21.1115 42.07 20.5148 41.8467 20.0748 41.4C19.6415 40.9533 19.4248 40.3367 19.4248 39.55C19.4248 39.05 19.5215 38.61 19.7148 38.23C19.9082 37.8433 20.1782 37.5433 20.5248 37.33C20.8782 37.1167 21.2782 37.01 21.7248 37.01C22.3582 37.01 22.8615 37.2167 23.2348 37.63C23.6082 38.0433 23.7948 38.6033 23.7948 39.31C23.7948 39.4433 23.7682 39.54 23.7148 39.6C23.6615 39.66 23.5748 39.69 23.4548 39.69H20.2348C20.2948 40.8367 20.8382 41.41 21.8648 41.41C22.1248 41.41 22.3482 41.3767 22.5348 41.31C22.7215 41.2367 22.9215 41.14 23.1348 41.02C23.3082 40.92 23.4248 40.87 23.4848 40.87ZM21.7348 37.64C21.3082 37.64 20.9648 37.7733 20.7048 38.04C20.4515 38.3067 20.3015 38.6833 20.2548 39.17H23.0848C23.0715 38.6767 22.9482 38.3 22.7148 38.04C22.4815 37.7733 22.1548 37.64 21.7348 37.64ZM26.9983 42.07C26.5449 42.07 26.1416 41.9667 25.7883 41.76C25.4416 41.5533 25.1716 41.26 24.9783 40.88C24.7916 40.5 24.6983 40.06 24.6983 39.56C24.6983 39.06 24.7949 38.6167 24.9883 38.23C25.1883 37.8433 25.4649 37.5433 25.8183 37.33C26.1716 37.1167 26.5783 37.01 27.0383 37.01C27.2916 37.01 27.5416 37.0467 27.7883 37.12C28.0416 37.1867 28.2616 37.2867 28.4483 37.42C28.5683 37.5 28.6516 37.58 28.6983 37.66C28.7516 37.7333 28.7783 37.8167 28.7783 37.91C28.7783 38.0033 28.7516 38.08 28.6983 38.14C28.6516 38.2 28.5883 38.23 28.5083 38.23C28.4616 38.23 28.4116 38.2167 28.3583 38.19C28.3049 38.1633 28.2583 38.1367 28.2183 38.11C28.1849 38.0833 28.1616 38.0667 28.1483 38.06C27.9749 37.9467 27.8083 37.8567 27.6483 37.79C27.4949 37.7233 27.3049 37.69 27.0783 37.69C26.5916 37.69 26.2116 37.8567 25.9383 38.19C25.6716 38.5167 25.5383 38.9733 25.5383 39.56C25.5383 40.1467 25.6716 40.6 25.9383 40.92C26.2116 41.24 26.5916 41.4 27.0783 41.4C27.3049 41.4 27.4983 41.3667 27.6583 41.3C27.8249 41.2333 27.9916 41.1433 28.1583 41.03C28.2316 40.9833 28.3016 40.9433 28.3683 40.91C28.4349 40.8767 28.4916 40.86 28.5383 40.86C28.6116 40.86 28.6716 40.89 28.7183 40.95C28.7716 41.01 28.7983 41.0867 28.7983 41.18C28.7983 41.2667 28.7749 41.3467 28.7283 41.42C28.6816 41.4867 28.5949 41.5633 28.4683 41.65C28.2816 41.7767 28.0549 41.88 27.7883 41.96C27.5283 42.0333 27.2649 42.07 26.9983 42.07ZM32.0332 41.41C32.2665 41.43 32.3832 41.5367 32.3832 41.73C32.3832 41.8433 32.3399 41.93 32.2532 41.99C32.1732 42.0433 32.0499 42.0633 31.8832 42.05L31.6132 42.03C31.0799 41.99 30.6865 41.83 30.4332 41.55C30.1799 41.27 30.0532 40.8467 30.0532 40.28V37.77H29.3832C29.2699 37.77 29.1799 37.7433 29.1132 37.69C29.0532 37.63 29.0232 37.5533 29.0232 37.46C29.0232 37.36 29.0532 37.28 29.1132 37.22C29.1799 37.16 29.2699 37.13 29.3832 37.13H30.0532V36C30.0532 35.8733 30.0899 35.7767 30.1632 35.71C30.2365 35.6367 30.3365 35.6 30.4632 35.6C30.5832 35.6 30.6799 35.6367 30.7532 35.71C30.8265 35.7767 30.8632 35.8733 30.8632 36V37.13H31.9732C32.0799 37.13 32.1632 37.16 32.2232 37.22C32.2899 37.28 32.3232 37.36 32.3232 37.46C32.3232 37.5533 32.2899 37.63 32.2232 37.69C32.1632 37.7433 32.0799 37.77 31.9732 37.77H30.8632V40.32C30.8632 40.6867 30.9365 40.9533 31.0832 41.12C31.2365 41.28 31.4632 41.37 31.7632 41.39L32.0332 41.41Z" fill="#8A8A8E"/>
<path d="M20.789 3H9.375V21H25.375V7.586L20.789 3ZM20.375 5.414L22.961 8H20.375V5.414ZM11.375 19V5H18.375V10H23.375V19H11.375Z" fill="#8A8A8E"/>
<path d="M21.375 15H13.375V17H21.375V15Z" fill="#8A8A8E"/>
<path d="M21.375 11H13.375V13H21.375V11Z" fill="#8A8A8E"/>
<path d="M16.375 7H13.375V9H16.375V7Z" fill="#8A8A8E"/>
</svg>
