<svg width="38" height="45" viewBox="0 0 38 45" fill="none" xmlns="http://www.w3.org/2000/svg">
<path d="M1.82469 42.07C1.70469 42.07 1.61135 42.0367 1.54469 41.97C1.47802 41.8967 1.44469 41.7967 1.44469 41.67V35.28C1.44469 35.1467 1.47802 35.0467 1.54469 34.98C1.61135 34.9133 1.70469 34.88 1.82469 34.88C1.93135 34.88 2.01469 34.9033 2.07469 34.95C2.14135 34.99 2.20135 35.06 2.25469 35.16L4.99469 40.32H4.69469L7.42469 35.16C7.47802 35.06 7.53469 34.99 7.59469 34.95C7.65469 34.9033 7.74135 34.88 7.85469 34.88C7.96802 34.88 8.05802 34.9133 8.12469 34.98C8.19135 35.0467 8.22469 35.1467 8.22469 35.28V41.67C8.22469 41.7967 8.19135 41.8967 8.12469 41.97C8.06469 42.0367 7.97135 42.07 7.84469 42.07C7.72469 42.07 7.63135 42.0367 7.56469 41.97C7.49802 41.8967 7.46469 41.7967 7.46469 41.67V36.05H7.70469L5.20469 40.74C5.15802 40.8267 5.10802 40.89 5.05469 40.93C5.00802 40.9633 4.93802 40.98 4.84469 40.98C4.75135 40.98 4.67802 40.96 4.62469 40.92C4.57135 40.88 4.52469 40.82 4.48469 40.74L1.95469 36.04H2.19469V41.67C2.19469 41.7967 2.16135 41.8967 2.09469 41.97C2.03469 42.0367 1.94469 42.07 1.82469 42.07ZM10.9494 43.87C10.8494 43.87 10.7694 43.8433 10.7094 43.79C10.6494 43.7367 10.6127 43.6633 10.5994 43.57C10.5927 43.4833 10.6094 43.3933 10.6494 43.3L11.3394 41.75V42.1L9.41938 37.64C9.37938 37.54 9.36604 37.4467 9.37938 37.36C9.39271 37.2733 9.43271 37.2033 9.49938 37.15C9.56604 37.0967 9.65938 37.07 9.77938 37.07C9.88604 37.07 9.96938 37.0933 10.0294 37.14C10.0894 37.1867 10.1427 37.27 10.1894 37.39L11.8294 41.41H11.5594L13.2194 37.39C13.2727 37.27 13.3294 37.1867 13.3894 37.14C13.4494 37.0933 13.536 37.07 13.6494 37.07C13.756 37.07 13.836 37.0967 13.8894 37.15C13.9494 37.2033 13.9827 37.2733 13.9894 37.36C14.0027 37.44 13.9894 37.53 13.9494 37.63L11.3894 43.55C11.336 43.67 11.276 43.7533 11.2094 43.8C11.1494 43.8467 11.0627 43.87 10.9494 43.87ZM19.8342 42.07C19.7076 42.07 19.6076 42.0333 19.5342 41.96C19.4609 41.88 19.4242 41.7733 19.4242 41.64V35.66H17.1742C17.0542 35.66 16.9609 35.6267 16.8942 35.56C16.8276 35.4933 16.7942 35.4067 16.7942 35.3C16.7942 35.1867 16.8276 35.1 16.8942 35.04C16.9609 34.98 17.0542 34.95 17.1742 34.95H22.5042C22.6242 34.95 22.7176 34.98 22.7842 35.04C22.8509 35.1 22.8842 35.1867 22.8842 35.3C22.8842 35.4133 22.8509 35.5033 22.7842 35.57C22.7176 35.63 22.6242 35.66 22.5042 35.66H20.2542V41.64C20.2542 41.7733 20.2176 41.88 20.1442 41.96C20.0776 42.0333 19.9742 42.07 19.8342 42.07ZM24.3681 42.09C24.0348 42.09 23.7348 42.0267 23.4681 41.9C23.2081 41.7667 23.0015 41.5867 22.8481 41.36C22.6948 41.1333 22.6181 40.88 22.6181 40.6C22.6181 40.24 22.7081 39.9567 22.8881 39.75C23.0748 39.5433 23.3781 39.3967 23.7981 39.31C24.2248 39.2233 24.8048 39.18 25.5381 39.18H25.9881V39.71H25.5481C25.0081 39.71 24.5815 39.7367 24.2681 39.79C23.9615 39.8367 23.7448 39.92 23.6181 40.04C23.4981 40.16 23.4381 40.33 23.4381 40.55C23.4381 40.8233 23.5315 41.0467 23.7181 41.22C23.9115 41.3933 24.1715 41.48 24.4981 41.48C24.7648 41.48 24.9981 41.4167 25.1981 41.29C25.4048 41.1633 25.5648 40.99 25.6781 40.77C25.7981 40.55 25.8581 40.2967 25.8581 40.01V38.87C25.8581 38.4567 25.7748 38.16 25.6081 37.98C25.4415 37.7933 25.1681 37.7 24.7881 37.7C24.5548 37.7 24.3215 37.73 24.0881 37.79C23.8548 37.85 23.6081 37.9467 23.3481 38.08C23.2548 38.1267 23.1748 38.1433 23.1081 38.13C23.0415 38.11 22.9881 38.0733 22.9481 38.02C22.9081 37.9667 22.8848 37.9067 22.8781 37.84C22.8715 37.7667 22.8848 37.6967 22.9181 37.63C22.9581 37.5633 23.0181 37.51 23.0981 37.47C23.3915 37.3233 23.6815 37.2167 23.9681 37.15C24.2548 37.0833 24.5281 37.05 24.7881 37.05C25.2081 37.05 25.5548 37.12 25.8281 37.26C26.1015 37.3933 26.3048 37.6 26.4381 37.88C26.5715 38.1533 26.6381 38.5067 26.6381 38.94V41.65C26.6381 41.7833 26.6048 41.8867 26.5381 41.96C26.4781 42.0333 26.3881 42.07 26.2681 42.07C26.1415 42.07 26.0448 42.0333 25.9781 41.96C25.9115 41.8867 25.8781 41.7833 25.8781 41.65V40.87H25.9681C25.9148 41.1233 25.8115 41.34 25.6581 41.52C25.5115 41.7 25.3281 41.84 25.1081 41.94C24.8881 42.04 24.6415 42.09 24.3681 42.09ZM29.7809 42.09C29.4809 42.09 29.1775 42.0533 28.8709 41.98C28.5709 41.9067 28.2909 41.78 28.0309 41.6C27.9642 41.5533 27.9175 41.5 27.8909 41.44C27.8642 41.3733 27.8542 41.31 27.8609 41.25C27.8742 41.1833 27.9009 41.1267 27.9409 41.08C27.9875 41.0333 28.0409 41.0067 28.1009 41C28.1675 40.9867 28.2409 41 28.3209 41.04C28.5809 41.2 28.8309 41.3133 29.0709 41.38C29.3175 41.44 29.5609 41.47 29.8009 41.47C30.1809 41.47 30.4675 41.4 30.6609 41.26C30.8542 41.12 30.9509 40.93 30.9509 40.69C30.9509 40.5033 30.8875 40.3567 30.7609 40.25C30.6342 40.1367 30.4342 40.05 30.1609 39.99L29.2509 39.79C28.8309 39.7033 28.5175 39.5533 28.3109 39.34C28.1109 39.1267 28.0109 38.85 28.0109 38.51C28.0109 38.21 28.0875 37.9533 28.2409 37.74C28.4009 37.52 28.6242 37.35 28.9109 37.23C29.1975 37.11 29.5309 37.05 29.9109 37.05C30.2042 37.05 30.4809 37.09 30.7409 37.17C31.0075 37.2433 31.2475 37.3633 31.4609 37.53C31.5275 37.5767 31.5709 37.6333 31.5909 37.7C31.6175 37.76 31.6209 37.8233 31.6009 37.89C31.5875 37.95 31.5575 38.0033 31.5109 38.05C31.4642 38.09 31.4075 38.1133 31.3409 38.12C31.2742 38.1267 31.2042 38.1067 31.1309 38.06C30.9309 37.9267 30.7275 37.83 30.5209 37.77C30.3142 37.7033 30.1109 37.67 29.9109 37.67C29.5375 37.67 29.2542 37.7433 29.0609 37.89C28.8675 38.0367 28.7709 38.23 28.7709 38.47C28.7709 38.6567 28.8309 38.81 28.9509 38.93C29.0709 39.05 29.2575 39.1367 29.5109 39.19L30.4209 39.38C30.8542 39.4733 31.1775 39.6233 31.3909 39.83C31.6109 40.03 31.7209 40.3033 31.7209 40.65C31.7209 41.09 31.5442 41.44 31.1909 41.7C30.8375 41.96 30.3675 42.09 29.7809 42.09ZM33.3553 42.07C33.222 42.07 33.122 42.0333 33.0553 41.96C32.9886 41.8867 32.9553 41.7833 32.9553 41.65V35.29C32.9553 35.1567 32.9886 35.0567 33.0553 34.99C33.122 34.9167 33.222 34.88 33.3553 34.88C33.482 34.88 33.582 34.9167 33.6553 34.99C33.7286 35.0567 33.7653 35.1567 33.7653 35.29V39.3H33.7853L35.8353 37.34C35.9286 37.2533 36.0086 37.1867 36.0753 37.14C36.1486 37.0933 36.2453 37.07 36.3653 37.07C36.472 37.07 36.5553 37.1 36.6153 37.16C36.6753 37.2133 36.702 37.2833 36.6953 37.37C36.6953 37.45 36.6553 37.5367 36.5753 37.63L34.3953 39.7V39.26L36.7653 41.49C36.8586 41.5833 36.9053 41.6733 36.9053 41.76C36.9053 41.8467 36.872 41.92 36.8053 41.98C36.7453 42.04 36.6653 42.07 36.5653 42.07C36.4453 42.07 36.3486 42.0467 36.2753 42C36.202 41.9467 36.112 41.87 36.0053 41.77L33.7853 39.72H33.7653V41.65C33.7653 41.93 33.6286 42.07 33.3553 42.07Z" fill="#F8F8F8"/>
<path d="M9.875 21H17.875V3H9.875V21ZM11.875 5H15.875V19H11.875V5Z" fill="#F8F8F8"/>
<path d="M19.875 3V11H27.875V3H19.875ZM25.875 9H21.875V5H25.875V9Z" fill="#F8F8F8"/>
<path d="M19.875 21H27.875V13H19.875V21ZM21.875 15H25.875V19H21.875V15Z" fill="#F8F8F8"/>
</svg>
