<svg width="30" height="45" viewBox="0 0 30 45" fill="none" xmlns="http://www.w3.org/2000/svg">
<path d="M2.15695 42.05C2.03029 42.05 1.93029 42.0133 1.85695 41.94C1.78362 41.86 1.74695 41.7567 1.74695 41.63V35.35C1.74695 35.23 1.78362 35.1333 1.85695 35.06C1.93695 34.9867 2.04029 34.95 2.16695 34.95H4.53695C5.27695 34.95 5.85029 35.13 6.25695 35.49C6.67029 35.85 6.87695 36.36 6.87695 37.02C6.87695 37.68 6.67029 38.1933 6.25695 38.56C5.84362 38.9267 5.27029 39.11 4.53695 39.11H2.56695V41.63C2.56695 41.7567 2.53029 41.86 2.45695 41.94C2.38362 42.0133 2.28362 42.05 2.15695 42.05ZM4.45695 38.43C5.53029 38.43 6.06695 37.96 6.06695 37.02C6.06695 36.0933 5.53029 35.63 4.45695 35.63H2.56695V38.43H4.45695ZM10.3846 37.03C10.6646 37.01 10.8046 37.1233 10.8046 37.37C10.8046 37.4767 10.7746 37.5633 10.7146 37.63C10.6546 37.69 10.5513 37.7267 10.4046 37.74L10.1046 37.77C9.65794 37.81 9.32461 37.97 9.10461 38.25C8.89128 38.5233 8.78461 38.8467 8.78461 39.22V41.65C8.78461 41.7833 8.74794 41.8833 8.67461 41.95C8.60128 42.0167 8.50461 42.05 8.38461 42.05C8.26461 42.05 8.16461 42.0167 8.08461 41.95C8.01128 41.8767 7.97461 41.7767 7.97461 41.65V37.43C7.97461 37.3033 8.01461 37.2067 8.09461 37.14C8.17461 37.0667 8.27128 37.03 8.38461 37.03C8.49128 37.03 8.58128 37.0667 8.65461 37.14C8.72794 37.2067 8.76461 37.3 8.76461 37.42V37.98C8.90461 37.6867 9.10128 37.4633 9.35461 37.31C9.61461 37.1567 9.91128 37.0667 10.2446 37.04L10.3846 37.03ZM13.4223 42.07C12.9623 42.07 12.5557 41.9667 12.2023 41.76C11.8557 41.5533 11.5857 41.26 11.3923 40.88C11.2057 40.4933 11.1123 40.0467 11.1123 39.54C11.1123 39.0333 11.2057 38.59 11.3923 38.21C11.5857 37.8233 11.8557 37.5267 12.2023 37.32C12.5557 37.1133 12.9623 37.01 13.4223 37.01C13.8823 37.01 14.289 37.1133 14.6423 37.32C14.9957 37.5267 15.2657 37.8233 15.4523 38.21C15.6457 38.59 15.7423 39.0333 15.7423 39.54C15.7423 40.0467 15.6457 40.4933 15.4523 40.88C15.2657 41.26 14.9957 41.5533 14.6423 41.76C14.289 41.9667 13.8823 42.07 13.4223 42.07ZM13.4223 41.4C13.9023 41.4 14.269 41.2433 14.5223 40.93C14.7823 40.61 14.9123 40.1467 14.9123 39.54C14.9123 38.9467 14.7823 38.49 14.5223 38.17C14.2623 37.8433 13.8957 37.68 13.4223 37.68C12.949 37.68 12.5823 37.8433 12.3223 38.17C12.0623 38.49 11.9323 38.9467 11.9323 39.54C11.9323 40.14 12.059 40.6 12.3123 40.92C12.5723 41.24 12.9423 41.4 13.4223 41.4ZM20.6695 37.13C20.7828 37.13 20.8695 37.16 20.9295 37.22C20.9895 37.28 21.0195 37.36 21.0195 37.46V41.65C21.0195 41.7767 20.9795 41.8767 20.8995 41.95C20.8261 42.0167 20.7328 42.05 20.6195 42.05C20.4995 42.05 20.3995 42.0167 20.3195 41.95C20.2461 41.8767 20.2095 41.7767 20.2095 41.65V37.77H18.0195V41.65C18.0195 41.7767 17.9795 41.8767 17.8995 41.95C17.8261 42.0167 17.7328 42.05 17.6195 42.05C17.4995 42.05 17.3995 42.0167 17.3195 41.95C17.2461 41.8767 17.2095 41.7767 17.2095 41.65V37.77H16.5395C16.4261 37.77 16.3361 37.7433 16.2695 37.69C16.2095 37.63 16.1795 37.5533 16.1795 37.46C16.1795 37.36 16.2095 37.28 16.2695 37.22C16.3361 37.16 16.4261 37.13 16.5395 37.13H17.2095V36.96C17.2095 36.36 17.3595 35.89 17.6595 35.55C17.9595 35.2033 18.3895 35.0067 18.9495 34.96L19.1895 34.94C19.5095 34.9133 19.6695 35.0133 19.6695 35.24C19.6695 35.4333 19.5561 35.5433 19.3295 35.57L19.0895 35.59C18.7361 35.6167 18.4695 35.73 18.2895 35.93C18.1095 36.1233 18.0195 36.4167 18.0195 36.81V37.13H20.6695ZM20.6195 34.97C20.7728 34.97 20.8995 35.0167 20.9995 35.11C21.1061 35.2033 21.1595 35.3233 21.1595 35.47C21.1595 35.6233 21.1095 35.7467 21.0095 35.84C20.9095 35.9333 20.7795 35.98 20.6195 35.98C20.4595 35.98 20.3295 35.9333 20.2295 35.84C20.1295 35.7467 20.0795 35.6233 20.0795 35.47C20.0795 35.3233 20.1295 35.2033 20.2295 35.11C20.3295 35.0167 20.4595 34.97 20.6195 34.97ZM22.9354 42.05C22.8154 42.05 22.7154 42.0167 22.6354 41.95C22.5621 41.8767 22.5254 41.7767 22.5254 41.65V35.3C22.5254 35.1733 22.5621 35.0767 22.6354 35.01C22.7154 34.9367 22.8154 34.9 22.9354 34.9C23.0487 34.9 23.1421 34.9367 23.2154 35.01C23.2954 35.0767 23.3354 35.1733 23.3354 35.3V41.65C23.3354 41.7767 23.2954 41.8767 23.2154 41.95C23.1421 42.0167 23.0487 42.05 22.9354 42.05ZM28.6196 40.87C28.6929 40.87 28.7563 40.9 28.8096 40.96C28.8629 41.02 28.8896 41.0967 28.8896 41.19C28.8896 41.3567 28.7729 41.51 28.5396 41.65C28.2996 41.79 28.0463 41.8967 27.7796 41.97C27.5129 42.0367 27.2529 42.07 26.9996 42.07C26.2463 42.07 25.6496 41.8467 25.2096 41.4C24.7763 40.9533 24.5596 40.3367 24.5596 39.55C24.5596 39.05 24.6563 38.61 24.8496 38.23C25.0429 37.8433 25.3129 37.5433 25.6596 37.33C26.0129 37.1167 26.4129 37.01 26.8596 37.01C27.4929 37.01 27.9963 37.2167 28.3696 37.63C28.7429 38.0433 28.9296 38.6033 28.9296 39.31C28.9296 39.4433 28.9029 39.54 28.8496 39.6C28.7963 39.66 28.7096 39.69 28.5896 39.69H25.3696C25.4296 40.8367 25.9729 41.41 26.9996 41.41C27.2596 41.41 27.4829 41.3767 27.6696 41.31C27.8563 41.2367 28.0563 41.14 28.2696 41.02C28.4429 40.92 28.5596 40.87 28.6196 40.87ZM26.8696 37.64C26.4429 37.64 26.0996 37.7733 25.8396 38.04C25.5863 38.3067 25.4363 38.6833 25.3896 39.17H28.2196C28.2063 38.6767 28.0829 38.3 27.8496 38.04C27.6163 37.7733 27.2896 37.64 26.8696 37.64Z" fill="#8A8A8E"/>
<path d="M25.125 11.9998C25.1274 10.3601 24.7267 8.74503 23.958 7.29672C23.1893 5.84841 22.0762 4.61133 20.7169 3.69445C19.3575 2.77757 17.7936 2.20902 16.1628 2.03886C14.5319 1.8687 12.8843 2.10216 11.365 2.71868C9.84562 3.3352 8.50119 4.31586 7.45007 5.5743C6.39895 6.83273 5.6734 8.33032 5.33732 9.93517C5.00124 11.54 5.06494 13.2029 5.52281 14.7773C5.98068 16.3518 6.81868 17.7895 7.96299 18.9638L7.90599 19.0148L8.80599 19.7498C9.03899 19.9398 9.28199 20.1178 9.53099 20.2858C9.54999 20.2988 9.57099 20.3098 9.59099 20.3228C9.81999 20.4748 10.054 20.6178 10.291 20.7498C10.402 20.8118 10.517 20.8648 10.63 20.9218C10.783 20.9988 10.93 21.0758 11.091 21.1448C11.252 21.2138 11.377 21.2628 11.522 21.3188C11.667 21.3748 11.794 21.4188 11.932 21.4688C12.085 21.5208 12.239 21.5688 12.396 21.6128C12.538 21.6528 12.681 21.6888 12.825 21.7238C12.969 21.7588 13.125 21.7938 13.28 21.8238C13.453 21.8558 13.628 21.8798 13.803 21.9038C13.931 21.9208 14.056 21.9418 14.185 21.9538C14.496 21.9828 14.808 22.0008 15.121 22.0008C15.434 22.0008 15.746 21.9828 16.057 21.9538C16.186 21.9418 16.311 21.9208 16.439 21.9038C16.614 21.8798 16.789 21.8558 16.962 21.8238C17.115 21.7948 17.262 21.7598 17.417 21.7238C17.572 21.6878 17.704 21.6528 17.846 21.6128C18.003 21.5678 18.157 21.5208 18.31 21.4688C18.448 21.4228 18.584 21.3688 18.72 21.3188C18.856 21.2688 19.01 21.2068 19.152 21.1438C19.294 21.0808 19.459 20.9988 19.611 20.9228C19.725 20.8648 19.84 20.8118 19.951 20.7498C20.19 20.6178 20.424 20.4748 20.651 20.3228C20.671 20.3098 20.692 20.2988 20.711 20.2858C20.96 20.1178 21.203 19.9398 21.436 19.7498L22.336 19.0148L22.279 18.9638C24.1013 17.1036 25.1229 14.6039 25.125 11.9998V11.9998ZM15.125 3.99981C16.7073 4.00113 18.2537 4.47165 19.5685 5.35185C20.8834 6.23206 21.9078 7.48241 22.512 8.9448C23.1162 10.4072 23.2733 12.0159 22.9632 13.5675C22.6531 15.1191 21.8899 16.544 20.77 17.6618C19.1138 16.5198 17.1358 15.9374 15.125 15.9998C13.1142 15.9374 11.1362 16.5198 9.47999 17.6618C8.36012 16.544 7.59688 15.1191 7.2868 13.5675C6.97673 12.0159 7.13374 10.4072 7.73798 8.9448C8.34222 7.48241 9.36656 6.23206 10.6814 5.35185C11.9963 4.47165 13.5427 4.00113 15.125 3.99981V3.99981ZM18.994 18.9998C18.7352 19.1448 18.4681 19.2744 18.194 19.3878C18.142 19.4098 18.087 19.4258 18.035 19.4458C17.7668 19.5508 17.4931 19.6409 17.215 19.7158L17.128 19.7378C15.8117 20.0678 14.4343 20.0678 13.118 19.7378L13.031 19.7158C12.7529 19.6409 12.4792 19.5508 12.211 19.4458C12.159 19.4258 12.104 19.4098 12.052 19.3878C11.7779 19.2744 11.5108 19.1448 11.252 18.9998C11.224 18.9838 11.197 18.9648 11.168 18.9488C12.3804 18.2894 13.7454 17.962 15.125 17.9998C16.5029 17.9618 17.8665 18.2881 19.078 18.9458C19.049 18.9618 19.025 18.9808 18.994 18.9998Z" fill="#8A8A8E"/>
<path d="M15.125 15C16.015 15 16.885 14.7361 17.6251 14.2416C18.3651 13.7471 18.9419 13.0443 19.2825 12.2221C19.6231 11.3998 19.7122 10.495 19.5385 9.6221C19.3649 8.74918 18.9363 7.94736 18.307 7.31802C17.6776 6.68868 16.8758 6.2601 16.0029 6.08647C15.13 5.91283 14.2252 6.00195 13.4029 6.34254C12.5807 6.68314 11.8779 7.25991 11.3834 7.99994C10.8889 8.73996 10.625 9.60999 10.625 10.5C10.6263 11.6931 11.1009 12.8369 11.9445 13.6805C12.7881 14.5241 13.9319 14.9987 15.125 15V15ZM15.125 8C15.6195 8 16.1028 8.14662 16.5139 8.42133C16.925 8.69603 17.2455 9.08648 17.4347 9.54329C17.6239 10.0001 17.6734 10.5028 17.577 10.9877C17.4805 11.4727 17.2424 11.9181 16.8928 12.2678C16.5431 12.6174 16.0977 12.8555 15.6127 12.952C15.1278 13.0484 14.6251 12.9989 14.1683 12.8097C13.7115 12.6205 13.321 12.3001 13.0463 11.8889C12.7716 11.4778 12.625 10.9945 12.625 10.5C12.625 9.83696 12.8884 9.20108 13.3572 8.73223C13.8261 8.26339 14.462 8 15.125 8V8Z" fill="#8A8A8E"/>
</svg>
